<svg width="215" height="37" viewBox="0 0 215 37" fill="none" xmlns="http://www.w3.org/2000/svg">
<g filter="url(#filter0_d)">
<path d="M18.5508 27.3774C17.2731 27.9959 15.6048 28.3052 13.5459 28.3052C10.8604 28.3052 8.74854 27.5158 7.21045 25.937C5.67236 24.3582 4.90332 22.2546 4.90332 19.626C4.90332 16.8265 5.76595 14.556 7.49121 12.8145C9.22461 11.0729 11.4707 10.2021 14.2295 10.2021C15.9385 10.2021 17.3789 10.4178 18.5508 10.8491V14.6455C17.3789 13.9456 16.0443 13.5957 14.5469 13.5957C12.903 13.5957 11.5765 14.1125 10.5674 15.146C9.55827 16.1795 9.05371 17.5793 9.05371 19.3452C9.05371 21.0379 9.52979 22.3888 10.4819 23.3979C11.4341 24.3989 12.7158 24.8994 14.3271 24.8994C15.8652 24.8994 17.2731 24.5251 18.5508 23.7764V27.3774ZM68.7095 28H64.8643V20.8711C64.8643 19.0563 64.1969 18.1489 62.8623 18.1489C62.2275 18.1489 61.7108 18.4215 61.312 18.9668C60.9132 19.512 60.7139 20.1916 60.7139 21.0054V28H56.8564V20.7979C56.8564 19.0319 56.2013 18.1489 54.8911 18.1489C54.2319 18.1489 53.703 18.4093 53.3042 18.9302C52.9136 19.451 52.7183 20.159 52.7183 21.0542V28H48.8608V15.5H52.7183V17.4531H52.7671C53.1659 16.7858 53.7233 16.2446 54.4395 15.8296C55.1637 15.4064 55.9531 15.1948 56.8076 15.1948C58.5736 15.1948 59.7821 15.972 60.4331 17.5264C61.3853 15.972 62.785 15.1948 64.6323 15.1948C67.3504 15.1948 68.7095 16.8713 68.7095 20.2241V28ZM91.6099 28H87.7646V20.8711C87.7646 19.0563 87.0973 18.1489 85.7627 18.1489C85.1279 18.1489 84.6112 18.4215 84.2124 18.9668C83.8136 19.512 83.6143 20.1916 83.6143 21.0054V28H79.7568V20.7979C79.7568 19.0319 79.1017 18.1489 77.7915 18.1489C77.1323 18.1489 76.6034 18.4093 76.2046 18.9302C75.814 19.451 75.6187 20.159 75.6187 21.0542V28H71.7612V15.5H75.6187V17.4531H75.6675C76.0662 16.7858 76.6237 16.2446 77.3398 15.8296C78.0641 15.4064 78.8535 15.1948 79.708 15.1948C81.474 15.1948 82.6825 15.972 83.3335 17.5264C84.2856 15.972 85.6854 15.1948 87.5327 15.1948C90.2508 15.1948 91.6099 16.8713 91.6099 20.2241V28ZM105.892 22.8486H97.7378C97.868 24.6634 99.0114 25.5708 101.168 25.5708C102.543 25.5708 103.752 25.2453 104.793 24.5942V27.3774C103.638 27.9959 102.136 28.3052 100.289 28.3052C98.2708 28.3052 96.7043 27.7477 95.5894 26.6328C94.4744 25.5098 93.917 23.9473 93.917 21.9453C93.917 19.8701 94.5192 18.2262 95.7236 17.0137C96.9281 15.8011 98.4092 15.1948 100.167 15.1948C101.99 15.1948 103.398 15.736 104.391 16.8184C105.392 17.9007 105.892 19.3696 105.892 21.2251V22.8486ZM102.315 20.4805C102.315 18.6901 101.591 17.7949 100.143 17.7949C99.5241 17.7949 98.987 18.0513 98.5312 18.564C98.0837 19.0767 97.811 19.7155 97.7134 20.4805H102.315ZM116.341 18.979C115.877 18.7267 115.336 18.6006 114.718 18.6006C113.88 18.6006 113.224 18.9098 112.752 19.5283C112.28 20.1387 112.044 20.9728 112.044 22.0308V28H108.187V15.5H112.044V17.8193H112.093C112.704 16.1266 113.802 15.2803 115.389 15.2803C115.796 15.2803 116.113 15.3291 116.341 15.4268V18.979ZM127.523 27.5483C126.652 28.0529 125.395 28.3052 123.751 28.3052C121.83 28.3052 120.276 27.7233 119.088 26.5596C117.9 25.3958 117.306 23.8944 117.306 22.0552C117.306 19.9312 117.94 18.2588 119.21 17.0381C120.488 15.8092 122.193 15.1948 124.325 15.1948C125.798 15.1948 126.864 15.3901 127.523 15.7808V19.0522C126.717 18.45 125.818 18.1489 124.825 18.1489C123.718 18.1489 122.84 18.4744 122.188 19.1255C121.546 19.7684 121.224 20.6595 121.224 21.7988C121.224 22.9056 121.533 23.7764 122.152 24.4111C122.77 25.0378 123.621 25.3511 124.703 25.3511C125.663 25.3511 126.603 25.05 127.523 24.4478V27.5483ZM132.015 13.5225C131.364 13.5225 130.831 13.3312 130.416 12.9487C130.001 12.5581 129.793 12.082 129.793 11.5205C129.793 10.9427 130.001 10.4707 130.416 10.1045C130.831 9.73828 131.364 9.55518 132.015 9.55518C132.674 9.55518 133.207 9.73828 133.614 10.1045C134.029 10.4707 134.237 10.9427 134.237 11.5205C134.237 12.1064 134.029 12.5866 133.614 12.9609C133.207 13.3353 132.674 13.5225 132.015 13.5225ZM133.919 28H130.062V15.5H133.919V28ZM147.567 28H143.917V26.2056H143.868C143.03 27.6053 141.789 28.3052 140.145 28.3052C138.932 28.3052 137.976 27.9634 137.276 27.2798C136.585 26.5881 136.239 25.6685 136.239 24.521C136.239 22.0959 137.675 20.6961 140.548 20.3218L143.941 19.8701C143.941 18.5029 143.201 17.8193 141.72 17.8193C140.23 17.8193 138.814 18.2629 137.472 19.1499V16.2446C138.009 15.9679 138.741 15.7238 139.669 15.5122C140.605 15.3006 141.455 15.1948 142.22 15.1948C145.785 15.1948 147.567 16.973 147.567 20.5293V28ZM143.941 22.9219V22.0796L141.671 22.3726C140.418 22.5353 139.791 23.1009 139.791 24.0693C139.791 24.5088 139.942 24.8709 140.243 25.1558C140.552 25.4325 140.967 25.5708 141.488 25.5708C142.212 25.5708 142.802 25.3226 143.258 24.8262C143.714 24.3216 143.941 23.6868 143.941 22.9219ZM154.476 28H150.619V9.49414H154.476V28ZM168.954 22.8486H160.799C160.93 24.6634 162.073 25.5708 164.229 25.5708C165.605 25.5708 166.813 25.2453 167.855 24.5942V27.3774C166.699 27.9959 165.198 28.3052 163.351 28.3052C161.332 28.3052 159.766 27.7477 158.651 26.6328C157.536 25.5098 156.979 23.9473 156.979 21.9453C156.979 19.8701 157.581 18.2262 158.785 17.0137C159.99 15.8011 161.471 15.1948 163.229 15.1948C165.051 15.1948 166.459 15.736 167.452 16.8184C168.453 17.9007 168.954 19.3696 168.954 21.2251V22.8486ZM165.377 20.4805C165.377 18.6901 164.653 17.7949 163.204 17.7949C162.586 17.7949 162.049 18.0513 161.593 18.564C161.145 19.0767 160.873 19.7155 160.775 20.4805H165.377Z" fill="#F9B126" style="mix-blend-mode:lighten"/>
<path d="M18.5508 27.3774C17.2731 27.9959 15.6048 28.3052 13.5459 28.3052C10.8604 28.3052 8.74854 27.5158 7.21045 25.937C5.67236 24.3582 4.90332 22.2546 4.90332 19.626C4.90332 16.8265 5.76595 14.556 7.49121 12.8145C9.22461 11.0729 11.4707 10.2021 14.2295 10.2021C15.9385 10.2021 17.3789 10.4178 18.5508 10.8491V14.6455C17.3789 13.9456 16.0443 13.5957 14.5469 13.5957C12.903 13.5957 11.5765 14.1125 10.5674 15.146C9.55827 16.1795 9.05371 17.5793 9.05371 19.3452C9.05371 21.0379 9.52979 22.3888 10.4819 23.3979C11.4341 24.3989 12.7158 24.8994 14.3271 24.8994C15.8652 24.8994 17.2731 24.5251 18.5508 23.7764V27.3774ZM68.7095 28H64.8643V20.8711C64.8643 19.0563 64.1969 18.1489 62.8623 18.1489C62.2275 18.1489 61.7108 18.4215 61.312 18.9668C60.9132 19.512 60.7139 20.1916 60.7139 21.0054V28H56.8564V20.7979C56.8564 19.0319 56.2013 18.1489 54.8911 18.1489C54.2319 18.1489 53.703 18.4093 53.3042 18.9302C52.9136 19.451 52.7183 20.159 52.7183 21.0542V28H48.8608V15.5H52.7183V17.4531H52.7671C53.1659 16.7858 53.7233 16.2446 54.4395 15.8296C55.1637 15.4064 55.9531 15.1948 56.8076 15.1948C58.5736 15.1948 59.7821 15.972 60.4331 17.5264C61.3853 15.972 62.785 15.1948 64.6323 15.1948C67.3504 15.1948 68.7095 16.8713 68.7095 20.2241V28ZM91.6099 28H87.7646V20.8711C87.7646 19.0563 87.0973 18.1489 85.7627 18.1489C85.1279 18.1489 84.6112 18.4215 84.2124 18.9668C83.8136 19.512 83.6143 20.1916 83.6143 21.0054V28H79.7568V20.7979C79.7568 19.0319 79.1017 18.1489 77.7915 18.1489C77.1323 18.1489 76.6034 18.4093 76.2046 18.9302C75.814 19.451 75.6187 20.159 75.6187 21.0542V28H71.7612V15.5H75.6187V17.4531H75.6675C76.0662 16.7858 76.6237 16.2446 77.3398 15.8296C78.0641 15.4064 78.8535 15.1948 79.708 15.1948C81.474 15.1948 82.6825 15.972 83.3335 17.5264C84.2856 15.972 85.6854 15.1948 87.5327 15.1948C90.2508 15.1948 91.6099 16.8713 91.6099 20.2241V28ZM105.892 22.8486H97.7378C97.868 24.6634 99.0114 25.5708 101.168 25.5708C102.543 25.5708 103.752 25.2453 104.793 24.5942V27.3774C103.638 27.9959 102.136 28.3052 100.289 28.3052C98.2708 28.3052 96.7043 27.7477 95.5894 26.6328C94.4744 25.5098 93.917 23.9473 93.917 21.9453C93.917 19.8701 94.5192 18.2262 95.7236 17.0137C96.9281 15.8011 98.4092 15.1948 100.167 15.1948C101.99 15.1948 103.398 15.736 104.391 16.8184C105.392 17.9007 105.892 19.3696 105.892 21.2251V22.8486ZM102.315 20.4805C102.315 18.6901 101.591 17.7949 100.143 17.7949C99.5241 17.7949 98.987 18.0513 98.5312 18.564C98.0837 19.0767 97.811 19.7155 97.7134 20.4805H102.315ZM116.341 18.979C115.877 18.7267 115.336 18.6006 114.718 18.6006C113.88 18.6006 113.224 18.9098 112.752 19.5283C112.28 20.1387 112.044 20.9728 112.044 22.0308V28H108.187V15.5H112.044V17.8193H112.093C112.704 16.1266 113.802 15.2803 115.389 15.2803C115.796 15.2803 116.113 15.3291 116.341 15.4268V18.979ZM127.523 27.5483C126.652 28.0529 125.395 28.3052 123.751 28.3052C121.83 28.3052 120.276 27.7233 119.088 26.5596C117.9 25.3958 117.306 23.8944 117.306 22.0552C117.306 19.9312 117.94 18.2588 119.21 17.0381C120.488 15.8092 122.193 15.1948 124.325 15.1948C125.798 15.1948 126.864 15.3901 127.523 15.7808V19.0522C126.717 18.45 125.818 18.1489 124.825 18.1489C123.718 18.1489 122.84 18.4744 122.188 19.1255C121.546 19.7684 121.224 20.6595 121.224 21.7988C121.224 22.9056 121.533 23.7764 122.152 24.4111C122.77 25.0378 123.621 25.3511 124.703 25.3511C125.663 25.3511 126.603 25.05 127.523 24.4478V27.5483ZM132.015 13.5225C131.364 13.5225 130.831 13.3312 130.416 12.9487C130.001 12.5581 129.793 12.082 129.793 11.5205C129.793 10.9427 130.001 10.4707 130.416 10.1045C130.831 9.73828 131.364 9.55518 132.015 9.55518C132.674 9.55518 133.207 9.73828 133.614 10.1045C134.029 10.4707 134.237 10.9427 134.237 11.5205C134.237 12.1064 134.029 12.5866 133.614 12.9609C133.207 13.3353 132.674 13.5225 132.015 13.5225ZM133.919 28H130.062V15.5H133.919V28ZM147.567 28H143.917V26.2056H143.868C143.03 27.6053 141.789 28.3052 140.145 28.3052C138.932 28.3052 137.976 27.9634 137.276 27.2798C136.585 26.5881 136.239 25.6685 136.239 24.521C136.239 22.0959 137.675 20.6961 140.548 20.3218L143.941 19.8701C143.941 18.5029 143.201 17.8193 141.72 17.8193C140.23 17.8193 138.814 18.2629 137.472 19.1499V16.2446C138.009 15.9679 138.741 15.7238 139.669 15.5122C140.605 15.3006 141.455 15.1948 142.22 15.1948C145.785 15.1948 147.567 16.973 147.567 20.5293V28ZM143.941 22.9219V22.0796L141.671 22.3726C140.418 22.5353 139.791 23.1009 139.791 24.0693C139.791 24.5088 139.942 24.8709 140.243 25.1558C140.552 25.4325 140.967 25.5708 141.488 25.5708C142.212 25.5708 142.802 25.3226 143.258 24.8262C143.714 24.3216 143.941 23.6868 143.941 22.9219ZM154.476 28H150.619V9.49414H154.476V28ZM168.954 22.8486H160.799C160.93 24.6634 162.073 25.5708 164.229 25.5708C165.605 25.5708 166.813 25.2453 167.855 24.5942V27.3774C166.699 27.9959 165.198 28.3052 163.351 28.3052C161.332 28.3052 159.766 27.7477 158.651 26.6328C157.536 25.5098 156.979 23.9473 156.979 21.9453C156.979 19.8701 157.581 18.2262 158.785 17.0137C159.99 15.8011 161.471 15.1948 163.229 15.1948C165.051 15.1948 166.459 15.736 167.452 16.8184C168.453 17.9007 168.954 19.3696 168.954 21.2251V22.8486ZM165.377 20.4805C165.377 18.6901 164.653 17.7949 163.204 17.7949C162.586 17.7949 162.049 18.0513 161.593 18.564C161.145 19.0767 160.873 19.7155 160.775 20.4805H165.377Z" fill="url(#paint0_linear)"/>
</g>
<g filter="url(#filter1_d)">
<path fill-rule="evenodd" clip-rule="evenodd" d="M23.4925 15.8135C23.248 16.6608 23.1213 17.5565 23.1315 18.4815C23.1412 19.368 23.2744 20.2242 23.5144 21.034C23.7037 21.6725 23.9594 22.2821 24.2734 22.855C25.154 24.4614 26.4935 25.7787 28.1135 26.6327C28.6738 26.928 29.2677 27.168 29.8878 27.3453C30.7351 27.5875 31.6312 27.7127 32.5574 27.7025C33.4938 27.6922 34.3956 27.5461 35.2444 27.2829C35.8364 27.0993 36.4025 26.8586 36.9366 26.5673C38.5012 25.7138 39.7898 24.4252 40.6433 22.8606C40.9571 22.2854 41.2121 21.6729 41.4003 21.031C41.6374 20.2225 41.7688 19.3674 41.7785 18.4815C41.7887 17.5553 41.6634 16.6591 41.4212 15.8118C41.2447 15.1943 41.006 14.6028 40.7123 14.0445C39.8599 12.424 38.5439 11.0836 36.9388 10.2017C36.8883 10.2542 36.8606 10.285 36.8606 10.285L35.0164 9.46532C35.0164 9.46532 35.0184 9.44674 35.0212 9.41257C34.2376 9.18882 33.4116 9.06487 32.5574 9.05549C31.6323 9.04532 30.7366 9.17206 29.8892 9.41659C29.8918 9.44819 29.8936 9.46532 29.8936 9.46532L28.0494 10.285C28.0494 10.285 28.0255 10.2562 27.9817 10.2068C26.4277 11.064 25.14 12.3517 24.2828 13.9057C24.3322 13.9495 24.361 13.9734 24.361 13.9734L23.5413 15.8176C23.5413 15.8176 23.5241 15.8159 23.4925 15.8135ZM32.5574 13.9734C30.0677 13.9734 28.0494 15.9917 28.0494 18.4815C28.0494 20.9712 30.0677 22.9895 32.5574 22.9895C35.0472 22.9895 37.0655 20.9712 37.0655 18.4815C37.0655 15.9917 35.0472 13.9734 32.5574 13.9734Z" fill="#C4C4C4"/>
<path d="M44.0326 20.7355C45.4725 19.7225 45.4351 17.2916 44.0326 16.2274C43.2784 15.6552 41.7259 15.7808 41.4212 15.8118C41.6634 16.6591 41.7887 17.5553 41.7785 18.4815C41.7688 19.3674 41.6374 20.2225 41.4003 21.031C42.4283 20.9156 43.1865 21.3307 44.0326 20.7355Z" fill="#C4C4C4"/>
<path d="M39.1147 28.1123C40.8026 28.2926 42.3686 26.7266 42.1884 25.0387C42.0902 24.1199 40.9774 23.1367 40.6433 22.8606C39.7898 24.4252 38.5012 25.7138 36.9366 26.5673C37.2127 26.9014 38.1959 28.0142 39.1147 28.1123Z" fill="#C4C4C4"/>
<path d="M30.3034 29.9566C31.3676 31.3591 33.7183 31.3365 34.8115 29.9566C35.3802 29.2388 35.2969 27.8042 35.2444 27.2829C34.3956 27.5461 33.4938 27.6922 32.5574 27.7025C31.6312 27.7127 30.7351 27.5875 29.8878 27.3453C29.8568 27.65 29.7312 29.2024 30.3034 29.9566Z" fill="#C4C4C4"/>
<path d="M22.7217 25.0387C22.5414 26.7266 24.1005 28.2078 25.7954 28.1123C26.7207 28.0602 27.7457 27.0346 28.1135 26.6327C26.4935 25.7787 25.154 24.4614 24.2734 22.855C23.9478 23.1233 22.8205 24.1137 22.7217 25.0387Z" fill="#C4C4C4"/>
<path d="M21.0823 16.2274C19.6586 17.2629 19.62 19.7552 21.0823 20.7355C21.8772 21.2683 22.5646 20.9175 23.5144 21.034C23.2744 20.2242 23.1412 19.368 23.1315 18.4815C23.1213 17.5565 23.248 16.6608 23.4925 15.8135C23.2116 15.7922 21.7899 15.7128 21.0823 16.2274Z" fill="#C4C4C4"/>
<path d="M26.0003 8.85058C24.3182 8.62204 22.6981 10.2422 22.9266 11.9243C23.0386 12.7484 23.9997 13.6546 24.2828 13.9057C25.14 12.3517 26.4277 11.064 27.9817 10.2068C27.7306 9.92374 26.8244 8.96256 26.0003 8.85058Z" fill="#C4C4C4"/>
<path d="M34.6066 7.00637C33.5949 5.66454 31.3151 5.66454 30.3034 7.00637C29.7765 7.70525 29.8658 9.13507 29.8892 9.41659C30.7366 9.17206 31.6323 9.04532 32.5574 9.05549C33.4116 9.06487 34.2376 9.18882 35.0212 9.41257C35.0451 9.12176 35.1311 7.70199 34.6066 7.00637Z" fill="#C4C4C4"/>
<path d="M42.1884 11.9243C42.3686 10.2363 40.8068 8.71521 39.1147 8.85058C38.2315 8.92124 37.223 9.90613 36.9388 10.2017C38.5439 11.0836 39.8599 12.424 40.7123 14.0445C41.1087 13.7071 42.0962 12.7873 42.1884 11.9243Z" fill="#C4C4C4"/>
<path d="M40.5491 14.1783C40.5491 14.1783 40.6116 14.1302 40.7123 14.0445M41.3687 15.8176C41.3687 15.8176 41.3872 15.8153 41.4212 15.8118M41.4003 21.031C41.6374 20.2225 41.7688 19.3674 41.7785 18.4815C41.7887 17.5553 41.6634 16.6591 41.4212 15.8118M41.4003 21.031C42.4283 20.9156 43.1865 21.3307 44.0326 20.7355C45.4725 19.7225 45.4351 17.2916 44.0326 16.2274C43.2784 15.6552 41.7259 15.7808 41.4212 15.8118M41.4003 21.031C41.2121 21.6729 40.9571 22.2854 40.6433 22.8606M40.5491 22.7846C40.5491 22.7846 40.5838 22.8114 40.6433 22.8606M36.8606 26.473C36.8606 26.473 36.8874 26.5078 36.9366 26.5673M35.2213 27.0878C35.2213 27.0878 35.232 27.1599 35.2444 27.2829M29.8936 27.2927C29.8936 27.2927 29.8913 27.3112 29.8878 27.3453M28.2543 26.473C28.2543 26.473 28.2036 26.5341 28.1135 26.6327M24.361 22.7846C24.361 22.7846 24.3288 22.8094 24.2734 22.855M23.5144 21.034C23.2744 20.2242 23.1412 19.368 23.1315 18.4815C23.1213 17.5565 23.248 16.6608 23.4925 15.8135M23.5144 21.034C22.5646 20.9175 21.8772 21.2683 21.0823 20.7355C19.62 19.7552 19.6586 17.2629 21.0823 16.2274C21.7899 15.7128 23.2116 15.7922 23.4925 15.8135M23.5144 21.034C23.7037 21.6725 23.9594 22.2821 24.2734 22.855M23.4925 15.8135C23.5241 15.8159 23.5413 15.8176 23.5413 15.8176L24.361 13.9734C24.361 13.9734 24.3322 13.9495 24.2828 13.9057M23.4925 15.8135C23.6856 15.1442 23.9522 14.5052 24.2828 13.9057M24.2734 22.855C25.154 24.4614 26.4935 25.7787 28.1135 26.6327M24.2734 22.855C23.9478 23.1233 22.8205 24.1137 22.7217 25.0387C22.5414 26.7266 24.1005 28.2078 25.7954 28.1123C26.7207 28.0602 27.7457 27.0346 28.1135 26.6327M28.1135 26.6327C28.6738 26.928 29.2677 27.168 29.8878 27.3453M29.8878 27.3453C30.7351 27.5875 31.6312 27.7127 32.5574 27.7025C33.4938 27.6922 34.3956 27.5461 35.2444 27.2829M29.8878 27.3453C29.8568 27.65 29.7312 29.2024 30.3034 29.9566C31.3676 31.3591 33.7183 31.3365 34.8115 29.9566C35.3802 29.2388 35.2969 27.8042 35.2444 27.2829M35.2444 27.2829C35.8364 27.0993 36.4025 26.8586 36.9366 26.5673M36.9366 26.5673C38.5012 25.7138 39.7898 24.4252 40.6433 22.8606M36.9366 26.5673C37.2127 26.9014 38.1959 28.0142 39.1147 28.1123C40.8026 28.2926 42.3686 26.7266 42.1884 25.0387C42.0902 24.1199 40.9774 23.1367 40.6433 22.8606M41.4212 15.8118C41.2447 15.1943 41.006 14.6028 40.7123 14.0445M40.7123 14.0445C39.8599 12.424 38.5439 11.0836 36.9388 10.2017M40.7123 14.0445C41.1087 13.7071 42.0962 12.7873 42.1884 11.9243C42.3686 10.2363 40.8068 8.71521 39.1147 8.85058C38.2315 8.92124 37.223 9.90613 36.9388 10.2017M36.9388 10.2017C36.8883 10.2542 36.8606 10.285 36.8606 10.285L35.0164 9.46532C35.0164 9.46532 35.0184 9.44674 35.0212 9.41257M36.9388 10.2017C36.3371 9.87113 35.6949 9.60496 35.0212 9.41257M35.0212 9.41257C34.2376 9.18882 33.4116 9.06487 32.5574 9.05549C31.6323 9.04532 30.7366 9.17206 29.8892 9.41659M35.0212 9.41257C35.0451 9.12176 35.1311 7.70199 34.6066 7.00637C33.5949 5.66454 31.3151 5.66454 30.3034 7.00637C29.7765 7.70525 29.8658 9.13507 29.8892 9.41659M29.8892 9.41659C29.8918 9.44819 29.8936 9.46532 29.8936 9.46532L28.0494 10.285C28.0494 10.285 28.0255 10.2562 27.9817 10.2068M29.8892 9.41659C29.22 9.60969 28.5811 9.87624 27.9817 10.2068M27.9817 10.2068C26.4277 11.064 25.14 12.3517 24.2828 13.9057M27.9817 10.2068C27.7306 9.92374 26.8244 8.96256 26.0003 8.85058C24.3182 8.62204 22.6981 10.2422 22.9266 11.9243C23.0386 12.7484 23.9997 13.6546 24.2828 13.9057M28.0494 18.4815C28.0494 15.9917 30.0677 13.9734 32.5574 13.9734C35.0472 13.9734 37.0655 15.9917 37.0655 18.4815C37.0655 20.9712 35.0472 22.9895 32.5574 22.9895C30.0677 22.9895 28.0494 20.9712 28.0494 18.4815Z" stroke="black" stroke-width="0.1"/>
</g>
<g filter="url(#filter2_d)">
<path d="M183.551 7.09473V19.0127H185.818V22.124H183.551V26H179.754V22.124H171.514V18.8677C172.244 18.0503 173 17.1582 173.782 16.1914C174.564 15.2158 175.32 14.2139 176.049 13.1855C176.779 12.1572 177.456 11.1245 178.08 10.0874C178.712 9.0415 179.249 8.04395 179.688 7.09473H183.551ZM175.245 19.0127H179.754V12.4077C179.446 12.979 179.112 13.5591 178.752 14.1479C178.392 14.728 178.014 15.3037 177.618 15.875C177.223 16.4375 176.823 16.9868 176.418 17.5229C176.014 18.0503 175.623 18.5469 175.245 19.0127ZM190.143 26.3296C189.457 26.3296 188.886 26.1187 188.429 25.6968C187.972 25.2749 187.743 24.7563 187.743 24.1411C187.743 23.5083 187.976 22.9897 188.442 22.5854C188.917 22.1812 189.505 21.979 190.208 21.979C190.92 21.979 191.5 22.1855 191.949 22.5986C192.406 23.0029 192.634 23.5171 192.634 24.1411C192.634 24.7827 192.401 25.3101 191.936 25.7231C191.479 26.1274 190.881 26.3296 190.143 26.3296ZM201.52 26.3296C197.02 26.3296 194.77 23.1699 194.77 16.8506C194.77 13.5723 195.376 11.0762 196.589 9.3623C197.811 7.63965 199.578 6.77832 201.889 6.77832C206.284 6.77832 208.481 9.99072 208.481 16.4155C208.481 19.6147 207.879 22.0669 206.675 23.772C205.479 25.4771 203.761 26.3296 201.52 26.3296ZM201.705 9.95557C199.903 9.95557 199.002 12.2188 199.002 16.7451C199.002 21.0078 199.885 23.1392 201.652 23.1392C203.375 23.1392 204.236 20.9419 204.236 16.5474C204.236 12.1528 203.392 9.95557 201.705 9.95557Z" fill="#C4C4C4"/>
</g>
<defs>
<filter id="filter0_d" x="0.90332" y="9.49414" width="172.05" height="26.811" filterUnits="userSpaceOnUse" color-interpolation-filters="sRGB">
<feFlood flood-opacity="0" result="BackgroundImageFix"/>
<feColorMatrix in="SourceAlpha" type="matrix" values="0 0 0 0 0 0 0 0 0 0 0 0 0 0 0 0 0 0 127 0"/>
<feOffset dy="4"/>
<feGaussianBlur stdDeviation="2"/>
<feColorMatrix type="matrix" values="0 0 0 0 0 0 0 0 0 0 0 0 0 0 0 0 0 0 0.25 0"/>
<feBlend mode="normal" in2="BackgroundImageFix" result="effect1_dropShadow"/>
<feBlend mode="normal" in="SourceGraphic" in2="effect1_dropShadow" result="shape"/>
</filter>
<filter id="filter1_d" x="17.95" y="5.95" width="29.1985" height="29.1" filterUnits="userSpaceOnUse" color-interpolation-filters="sRGB">
<feFlood flood-opacity="0" result="BackgroundImageFix"/>
<feColorMatrix in="SourceAlpha" type="matrix" values="0 0 0 0 0 0 0 0 0 0 0 0 0 0 0 0 0 0 127 0"/>
<feOffset dy="2"/>
<feGaussianBlur stdDeviation="1"/>
<feColorMatrix type="matrix" values="0 0 0 0 0 0 0 0 0 0 0 0 0 0 0 0 0 0 0.25 0"/>
<feBlend mode="normal" in2="BackgroundImageFix" result="effect1_dropShadow"/>
<feBlend mode="normal" in="SourceGraphic" in2="effect1_dropShadow" result="shape"/>
</filter>
<filter id="filter2_d" x="169.514" y="5.77832" width="40.9668" height="23.5513" filterUnits="userSpaceOnUse" color-interpolation-filters="sRGB">
<feFlood flood-opacity="0" result="BackgroundImageFix"/>
<feColorMatrix in="SourceAlpha" type="matrix" values="0 0 0 0 0 0 0 0 0 0 0 0 0 0 0 0 0 0 127 0"/>
<feOffset dy="1"/>
<feGaussianBlur stdDeviation="1"/>
<feColorMatrix type="matrix" values="0 0 0 0 0 0 0 0 0 0 0 0 0 0 0 0 0 0 0.25 0"/>
<feBlend mode="normal" in2="BackgroundImageFix" result="effect1_dropShadow"/>
<feBlend mode="normal" in="SourceGraphic" in2="effect1_dropShadow" result="shape"/>
</filter>
<linearGradient id="paint0_linear" x1="215" y1="0.999993" x2="4" y2="1.00001" gradientUnits="userSpaceOnUse">
<stop offset="0.9999" stop-color="#FFBE3F"/>
<stop offset="1" stop-color="white"/>
</linearGradient>
</defs>
</svg>
